<svg width="36" height="36" viewBox="0 0 36 36" fill="none" xmlns="http://www.w3.org/2000/svg">
<path d="M12.3885 25.6846H13.6001V22.5808H16.704V21.3691H13.6001V18.2848H12.3885V21.3691H9.30375V22.5808H12.3885V25.6846ZM20.0711 24.4925H26.6539V23.2865H20.0711V24.4925ZM20.0711 20.6634H26.6539V19.4518H20.0711V20.6634ZM21.1808 14.6116L23.3288 12.4441L25.4963 14.6116L26.3636 13.7251L24.1961 11.5903L26.3636 9.42313L25.4963 8.55575L23.3288 10.7037L21.1808 8.55575L20.2943 9.42313L22.4614 11.5903L20.2943 13.7251L21.1808 14.6116ZM9.72675 12.1865H16.2615V10.9749H9.72675V12.1865ZM8.19225 29C7.57775 29 7.05875 28.7882 6.63525 28.3647C6.21175 27.9413 6 27.4223 6 26.8078V7.19225C6 6.57775 6.21175 6.05875 6.63525 5.63525C7.05875 5.21175 7.57775 5 8.19225 5H27.8078C28.4223 5 28.9413 5.21175 29.3647 5.63525C29.7882 6.05875 30 6.57775 30 7.19225V26.8078C30 27.4223 29.7882 27.9413 29.3647 28.3647C28.9413 28.7882 28.4223 29 27.8078 29H8.19225ZM8.19225 27.7306H27.8078C28.0385 27.7306 28.25 27.6345 28.4423 27.4423C28.6345 27.25 28.7306 27.0385 28.7306 26.8078V7.19225C28.7306 6.9615 28.6345 6.75 28.4423 6.55775C28.25 6.3655 28.0385 6.26937 27.8078 6.26937H8.19225C7.9615 6.26937 7.75 6.3655 7.55775 6.55775C7.3655 6.75 7.26938 6.9615 7.26938 7.19225V26.8078C7.26938 27.0385 7.3655 27.25 7.55775 27.4423C7.75 27.6345 7.9615 27.7306 8.19225 27.7306Z" fill="white"/>
</svg>
