<svg width="29" height="29" viewBox="0 0 29 29" fill="none" xmlns="http://www.w3.org/2000/svg">
<rect width="29" height="29" rx="14.5" fill="#303030"/>
<path d="M13.875 20.7625H15.8688V13.6333H13.875V20.7625ZM14.8362 11.4305C15.1311 11.4305 15.38 11.3309 15.583 11.1315C15.786 10.9319 15.8875 10.6848 15.8875 10.3902C15.8875 10.0953 15.7877 9.84642 15.5881 9.64342C15.3887 9.44062 15.1417 9.33922 14.8471 9.33922C14.5523 9.33922 14.3034 9.43891 14.1004 9.63828C13.8974 9.83766 13.7959 10.0848 13.7959 10.3796C13.7959 10.6742 13.8956 10.923 14.0952 11.126C14.2946 11.329 14.5416 11.4305 14.8362 11.4305ZM14.8456 26.6833C13.2081 26.6833 11.6686 26.3726 10.227 25.7511C8.7857 25.1296 7.53185 24.2862 6.4655 23.2209C5.39915 22.1555 4.55502 20.9027 3.93314 19.4623C3.31105 18.0222 3 16.4833 3 14.8456C3 13.2031 3.31135 11.6587 3.93404 10.2125C4.55674 8.76657 5.40176 7.50879 6.46913 6.43922C7.53649 5.36944 8.78933 4.52884 10.2276 3.91743C11.6658 3.30581 13.2025 3 14.8377 3C16.4801 3 18.0242 3.30551 19.4702 3.91652C20.916 4.52754 22.1738 5.36753 23.2438 6.4365C24.3138 7.50547 25.1545 8.76254 25.7659 10.2077C26.3775 11.6529 26.6833 13.197 26.6833 14.8402C26.6833 16.4833 26.3778 18.0222 25.7668 19.4569C25.1558 20.8914 24.3159 22.1428 23.2471 23.2112C22.1784 24.2796 20.9216 25.1254 19.4768 25.7487C18.0321 26.3718 16.4883 26.6833 14.8456 26.6833ZM14.8417 24.6896C17.5908 24.6896 19.9195 23.7356 21.8276 21.8276C23.7356 19.9195 24.6896 17.5908 24.6896 14.8417C24.6896 12.0925 23.7356 9.76385 21.8276 7.85569C19.9195 5.94773 17.5908 4.99375 14.8417 4.99375C12.0925 4.99375 9.76385 5.94773 7.85569 7.85569C5.94773 9.76385 4.99375 12.0925 4.99375 14.8417C4.99375 17.5908 5.94773 19.9195 7.85569 21.8276C9.76385 23.7356 12.0925 24.6896 14.8417 24.6896Z" fill="#FF3336"/>
</svg>
