<svg width="29" height="29" viewBox="0 0 29 29" fill="none" xmlns="http://www.w3.org/2000/svg">
<rect width="29" height="29" rx="14.5" fill="#303030"/>
<path d="M7 23.4226V21.4288H11.2654C10.9874 19.92 10.4703 18.5637 9.71401 17.36C8.95772 16.1563 8.05305 15.3415 7 14.9156C7.24996 14.8304 7.49679 14.7614 7.74048 14.7087C7.98429 14.6559 8.23745 14.6295 8.49996 14.6295C10.1718 14.6295 11.5897 15.4243 12.7538 17.0139C13.9179 18.6032 14.5 20.7394 14.5 23.4226H7ZM15.2529 23.4226C15.2529 22.8897 15.2295 22.394 15.1827 21.9354C15.1359 21.4768 15.0575 20.9974 14.9474 20.4972C15.4716 18.728 16.208 17.3078 17.1568 16.2366C18.1057 15.1652 19.2201 14.6295 20.5 14.6295C20.7625 14.6295 21.0157 14.6609 21.2595 14.7238C21.5032 14.7866 21.75 14.8606 22 14.9458C20.9469 15.3717 20.0485 16.1916 19.3048 17.4054C18.5611 18.6191 18.0565 19.9603 17.7911 21.4288H22V23.4226H15.2529ZM14.7302 19.384C14.5237 17.8333 14.521 16.3558 14.7223 14.9515C14.9236 13.5472 15.2771 12.3079 15.7828 11.2335C16.2886 10.1593 16.9295 9.28092 17.7057 8.59842C18.4816 7.91611 19.3412 7.52924 20.2843 7.43781C19.3847 8.35172 18.6444 9.51544 18.0633 10.929C17.4822 12.3427 17.1366 13.7048 17.0265 15.0153C16.5314 15.4213 16.0572 16.0541 15.6039 16.9139C15.1508 17.7736 14.8596 18.597 14.7302 19.384ZM14.2047 17.7528C13.9469 17.1796 13.6113 16.6138 13.1977 16.0553C12.7841 15.4969 12.43 15.1139 12.1355 14.9062C12.1645 14.7187 12.1909 14.4248 12.2146 14.0244C12.2382 13.6239 12.25 13.2989 12.25 13.0496C12.25 11.5098 12.0991 10.0628 11.7975 8.70868C11.4958 7.35474 11.0685 6.11851 10.5155 5C11.4266 5.59812 12.2514 6.56872 12.9899 7.91178C13.7283 9.25484 14.2674 11.0573 14.6071 13.3191C14.4363 13.9418 14.3253 14.6621 14.2741 15.4802C14.2229 16.298 14.1998 17.0555 14.2047 17.7528Z" fill="#29FF77"/>
</svg>
