<svg width="36" height="36" viewBox="0 0 36 36" fill="none" xmlns="http://www.w3.org/2000/svg">
<path d="M22.6463 28.8845L13.3789 25.625L7.521 27.9155C7.16075 28.0745 6.81725 28.049 6.4905 27.839C6.1635 27.629 6 27.3211 6 26.9154V8.60001C6 8.33276 6.06488 8.08851 6.19463 7.86726C6.32438 7.64626 6.51137 7.49238 6.75562 7.40563L13.3789 5.11551L22.6463 8.34988L28.479 6.07888C28.8393 5.92363 29.1828 5.93563 29.5095 6.11488C29.8365 6.29413 30 6.57701 30 6.96351V25.5886C30 25.8546 29.9206 26.0863 29.7619 26.2835C29.6034 26.481 29.4008 26.6211 29.154 26.7039L22.6463 28.8845ZM21.9499 27.323V9.34813L14.0501 6.61363V24.5885L21.9499 27.323ZM23.2192 27.323L28.7306 25.5136V7.28863L23.2192 9.34813V27.323ZM7.26938 26.6866L12.7808 24.5885V6.61363L7.26938 8.48076V26.6866Z" fill="white"/>
</svg>
