<svg width="35" height="32" viewBox="0 0 35 32" fill="none" xmlns="http://www.w3.org/2000/svg">
<path d="M7.29169 24.4542V23.3259H9.64762V12.5192C9.64762 10.7759 10.2465 9.23345 11.4443 7.89189C12.6421 6.55056 14.1745 5.72545 16.0417 5.41656V4.76189C16.0417 4.39145 16.1831 4.07667 16.4661 3.81756C16.749 3.55822 17.0925 3.42856 17.4967 3.42856C17.9009 3.42856 18.2456 3.55822 18.5307 3.81756C18.8158 4.07667 18.9584 4.39145 18.9584 4.76189V5.42523C20.8255 5.72834 22.358 6.55056 23.5557 7.89189C24.7535 9.23345 25.3524 10.7759 25.3524 12.5192V23.3259H27.7084V24.4542H7.29169ZM17.4949 27.9412C16.8457 27.9412 16.2917 27.7303 15.8328 27.3086C15.3736 26.8868 15.1441 26.3798 15.1441 25.7876H19.856C19.856 26.3842 19.6247 26.8923 19.1622 27.3119C18.6999 27.7314 18.1441 27.9412 17.4949 27.9412ZM10.8814 23.3259H24.1187V12.5192C24.1187 10.845 23.4734 9.41789 22.1827 8.23789C20.8919 7.05789 19.331 6.46789 17.5 6.46789C15.6691 6.46789 14.1082 7.05789 12.8173 8.23789C11.5267 9.41789 10.8814 10.845 10.8814 12.5192V23.3259Z" fill="white"/>
</svg>
