<svg width="36" height="36" viewBox="0 0 36 36" fill="none" xmlns="http://www.w3.org/2000/svg">
<g clip-path="url(#clip0_11_35095)">
<path d="M13.4306 29H7.5C7.07875 29 6.7235 28.8553 6.43425 28.5658C6.14475 28.2765 6 27.9213 6 27.5V21.5694C6.85375 21.3194 7.56725 20.8468 8.1405 20.1515C8.7135 19.4563 9 18.6558 9 17.75C9 16.8443 8.7135 16.0438 8.1405 15.3485C7.56725 14.6533 6.85375 14.1806 6 13.9306V8.00001C6 7.57876 6.14475 7.22351 6.43425 6.93426C6.7235 6.64476 7.07875 6.50001 7.5 6.50001H13.5C13.7693 5.64226 14.2424 4.95663 14.9194 4.44313C15.5961 3.92963 16.373 3.67288 17.25 3.67288C18.127 3.67288 18.9039 3.92963 19.5806 4.44313C20.2576 4.95663 20.7308 5.64226 21 6.50001H27C27.4213 6.50001 27.7765 6.64476 28.0658 6.93426C28.3552 7.22351 28.5 7.57876 28.5 8.00001V14C29.3578 14.2693 30.0434 14.7424 30.5569 15.4194C31.0704 16.0961 31.3271 16.873 31.3271 17.75C31.3271 18.627 31.0704 19.4039 30.5569 20.0806C30.0434 20.7576 29.3578 21.2308 28.5 21.5V27.5C28.5 27.9213 28.3552 28.2765 28.0658 28.5658C27.7765 28.8553 27.4213 29 27 29H21.0694C20.8001 28.0963 20.315 27.3703 19.614 26.822C18.913 26.274 18.125 26 17.25 26C16.375 26 15.587 26.274 14.886 26.822C14.185 27.3703 13.6999 28.0963 13.4306 29ZM7.5 27.5H12.447C12.874 26.5038 13.5336 25.7548 14.4259 25.253C15.3181 24.751 16.2595 24.5 17.25 24.5C18.2405 24.5 19.1819 24.751 20.0741 25.253C20.9664 25.7548 21.626 26.5038 22.053 27.5H27V20.1733H27.6923C28.4115 20.0578 28.9471 19.7615 29.2991 19.2845C29.6509 18.8078 29.8268 18.2963 29.8268 17.75C29.8268 17.2038 29.6509 16.6923 29.2991 16.2155C28.9471 15.7385 28.4115 15.4423 27.6923 15.3268H27V8.00001H19.6733V7.30776C19.5578 6.58851 19.2615 6.05288 18.7845 5.70088C18.3078 5.34913 17.7963 5.17326 17.25 5.17326C16.7038 5.17326 16.1923 5.34913 15.7155 5.70088C15.2385 6.05288 14.9423 6.58851 14.8268 7.30776V8.00001H7.5V12.9155C8.427 13.3578 9.15875 14.0174 9.69525 14.8944C10.2318 15.7711 10.5 16.723 10.5 17.75C10.5 18.7713 10.2318 19.7203 9.69525 20.597C9.15875 21.474 8.427 22.1365 7.5 22.5845V27.5Z" fill="white"/>
</g>
<defs>
<clipPath id="clip0_11_35095">
<rect width="36" height="36" fill="white"/>
</clipPath>
</defs>
</svg>
