<svg width="36" height="36" viewBox="0 0 36 36" fill="none" xmlns="http://www.w3.org/2000/svg">
<g clip-path="url(#clip0_11_35116)">
<path d="M3.89435 27.9233V25.4539C3.89435 24.7576 4.0746 24.159 4.4351 23.658C4.7956 23.1573 5.2801 22.757 5.8886 22.4573C7.18985 21.8378 8.48172 21.3439 9.76422 20.9756C11.047 20.6074 12.5903 20.4233 14.3943 20.4233C16.1981 20.4233 17.7413 20.6074 19.0241 20.9756C20.3068 21.3439 21.5987 21.8378 22.8997 22.4573C23.5082 22.757 23.9927 23.1573 24.3532 23.658C24.714 24.159 24.8943 24.7576 24.8943 25.4539V27.9233H3.89435ZM27.8943 27.9233V25.3845C27.8943 24.5153 27.7183 23.6948 27.3663 22.923C27.0146 22.1513 26.5156 21.4891 25.8693 20.9366C26.6058 21.0866 27.3155 21.2948 27.9982 21.561C28.6807 21.8275 29.3557 22.127 30.0232 22.4595C30.6732 22.7865 31.1828 23.2049 31.5521 23.7146C31.9211 24.2246 32.1056 24.7813 32.1056 25.3845V27.9233H27.8943ZM14.3943 17.0768C13.1568 17.0768 12.0975 16.6361 11.2162 15.7549C10.335 14.8736 9.89435 13.8143 9.89435 12.5768C9.89435 11.3393 10.335 10.2799 11.2162 9.39863C12.0975 8.51738 13.1568 8.07675 14.3943 8.07675C15.6318 8.07675 16.6912 8.51738 17.5725 9.39863C18.4537 10.2799 18.8943 11.3393 18.8943 12.5768C18.8943 13.8143 18.4537 14.8736 17.5725 15.7549C16.6912 16.6361 15.6318 17.0768 14.3943 17.0768ZM25.2982 12.5768C25.2982 13.8143 24.8576 14.8736 23.9763 15.7549C23.0951 16.6361 22.0357 17.0768 20.7982 17.0768C20.7347 17.0768 20.6538 17.0696 20.5556 17.0554C20.4576 17.0409 20.3768 17.025 20.3133 17.0078C20.8216 16.3853 21.2121 15.6948 21.4848 14.9363C21.7578 14.1778 21.8943 13.3901 21.8943 12.5734C21.8943 11.7566 21.7515 10.9761 21.4657 10.2319C21.1802 9.48763 20.7961 8.79238 20.3133 8.14613C20.3941 8.11738 20.4748 8.09863 20.5556 8.08988C20.6363 8.08113 20.7172 8.07675 20.7982 8.07675C22.0357 8.07675 23.0951 8.51738 23.9763 9.39863C24.8576 10.2799 25.2982 11.3393 25.2982 12.5768ZM5.39435 26.4233H23.3943V25.4539C23.3943 25.1019 23.3063 24.7941 23.1303 24.5306C22.9543 24.2674 22.6385 24.0155 22.1827 23.775C21.0635 23.177 19.8836 22.7189 18.6431 22.4006C17.4028 22.0824 15.9866 21.9233 14.3943 21.9233C12.8018 21.9233 11.3855 22.0824 10.1452 22.4006C8.90472 22.7189 7.72485 23.177 6.6056 23.775C6.14985 24.0155 5.83397 24.2674 5.65797 24.5306C5.48222 24.7941 5.39435 25.1019 5.39435 25.4539V26.4233ZM14.3943 15.5768C15.2193 15.5768 15.9256 15.283 16.5131 14.6955C17.1006 14.108 17.3943 13.4018 17.3943 12.5768C17.3943 11.7518 17.1006 11.0455 16.5131 10.458C15.9256 9.8705 15.2193 9.57675 14.3943 9.57675C13.5693 9.57675 12.8631 9.8705 12.2756 10.458C11.6881 11.0455 11.3943 11.7518 11.3943 12.5768C11.3943 13.4018 11.6881 14.108 12.2756 14.6955C12.8631 15.283 13.5693 15.5768 14.3943 15.5768Z" fill="white"/>
</g>
<defs>
<clipPath id="clip0_11_35116">
<rect width="36" height="36" fill="white"/>
</clipPath>
</defs>
</svg>
