<svg width="29" height="29" viewBox="0 0 29 29" fill="none" xmlns="http://www.w3.org/2000/svg">
<rect width="29" height="29" rx="14.5" fill="#303030"/>
<path d="M14.7625 22.5864C14.9755 22.5642 15.1446 22.4928 15.2697 22.3719C15.3947 22.2509 15.4573 22.1051 15.4573 21.9345C15.4573 21.7635 15.3843 21.616 15.2383 21.492C15.092 21.3681 14.9187 21.3162 14.7184 21.3364C13.8927 21.3968 13.0004 21.1694 12.0416 20.6543C11.0826 20.1391 10.4823 19.2069 10.2406 17.8576C10.2003 17.6268 10.1182 17.4591 9.99439 17.3546C9.87033 17.2501 9.73631 17.1978 9.59231 17.1978C9.39395 17.1978 9.23394 17.2661 9.1123 17.4026C8.99087 17.5394 8.9526 17.7376 8.99751 17.9971C9.30886 19.6749 10.0834 20.8755 11.3211 21.5989C12.5589 22.3223 13.706 22.6514 14.7625 22.5864ZM14.4924 26.4624C11.8174 26.4624 9.58909 25.5457 7.8076 23.7123C6.02612 21.879 5.13538 19.5718 5.13538 16.7906C5.13538 14.8376 5.92079 12.6937 7.49163 10.359C9.06246 8.02447 11.3986 5.52111 14.5 2.84888C17.6013 5.52111 19.9375 8.02447 21.5083 10.359C23.0791 12.6937 23.8645 14.8376 23.8645 16.7906C23.8645 19.5718 22.9713 21.879 21.1848 23.7123C19.3982 25.5457 17.1675 26.4624 14.4924 26.4624ZM14.5 24.4687C16.6145 24.4687 18.3717 23.7411 19.7713 22.2858C21.171 20.8308 21.8708 18.999 21.8708 16.7903C21.8708 15.2835 21.2465 13.5735 19.9979 11.6603C18.7493 9.74715 16.9166 7.69298 14.5 5.49785C12.0833 7.69298 10.2507 9.74715 9.00204 11.6603C7.75343 13.5735 7.12913 15.2835 7.12913 16.7903C7.12913 18.999 7.82895 20.8308 9.22861 22.2858C10.6283 23.7411 12.3854 24.4687 14.5 24.4687Z" fill="#4A9DFD"/>
</svg>
